<svg xmlns="http://www.w3.org/2000/svg" version="1.1" xmlns:xlink="http://www.w3.org/1999/xlink" width="1500" height="1500" viewBox="0 0 1500 1500"><rect width="1500" height="1500" x="0" y="0" id="background" stroke="transparent" fill="#ffffff"></rect><svg xml:space="preserve" width="1000" height="1000" data-version="2" data-id="lg_Y7dvdUz7Z0KIQSzBgy" viewBox="0 0 344 344" x="250" y="250"><rect width="100%" height="100%" fill="transparent"></rect><g transform="translate(33.34 168.44)"><linearGradient id="a" x1="0" x2="3.19" y1="0" y2="0" gradientUnits="objectBoundingBox"><stop offset="0%" stop-color="#cbcbcb"></stop><stop offset="100%" stop-color="#636363"></stop></linearGradient><path fill="url(#a)" d="M273.14 402.77q0 3.18-1.49 5.36-1.49 2.19-4.44 3.31-2.95 1.13-7.35 1.13-3.25 0-5.58-.42-2.32-.41-4.69-1.39v-7.01q2.54 1.14 5.44 1.88 2.91.73 5.11.73 2.48 0 3.55-.73 1.07-.74 1.07-1.94 0-.78-.43-1.4-.43-.63-1.85-1.42-1.42-.8-4.45-2.08-2.93-1.22-4.81-2.47-1.87-1.26-2.78-2.97-.9-1.71-.9-4.35 0-4.32 3.35-6.5 3.35-2.19 8.98-2.19 2.89 0 5.52.59 2.63.58 5.41 1.86l-2.56 6.13q-2.31-1.01-4.35-1.65-2.05-.64-4.16-.64-1.87 0-2.81.5-.95.51-.95 1.54 0 .75.49 1.33.48.59 1.89 1.3 1.41.7 4.13 1.82 2.65 1.08 4.59 2.27 1.95 1.18 3.01 2.92 1.06 1.74 1.06 4.49" transform="translate(-261.34 -396.44)"></path></g><rect width="23.6" height="32.26" x="-11.8" y="-16.13" fill="none" rx="0" ry="0" transform="translate(33.84 168.94)"></rect><g transform="translate(63.58 168.41)"><linearGradient id="b" x1="-.82" x2="1.62" y1="0" y2="0" gradientUnits="objectBoundingBox"><stop offset="0%" stop-color="#cbcbcb"></stop><stop offset="100%" stop-color="#636363"></stop></linearGradient><path fill="url(#b)" d="M292.51 380.26q6.26 0 9.6 2.73 3.34 2.72 3.34 8.29v20.73h-5.93l-1.64-4.23h-.22q-1.34 1.67-2.73 2.73t-3.2 1.56q-1.81.5-4.4.5-2.75 0-4.94-1.06-2.18-1.05-3.43-3.24-1.26-2.18-1.26-5.55 0-4.96 3.48-7.31 3.48-2.35 10.44-2.6l5.4-.17v-1.36q0-2.45-1.28-3.59-1.28-1.14-3.56-1.14-2.26 0-4.43.64t-4.34 1.61l-2.81-5.73q2.47-1.31 5.55-2.06 3.08-.75 6.36-.75m4.51 19.9v-2.56l-3.29.11q-4.12.11-5.72 1.47-1.6 1.37-1.6 3.59 0 1.95 1.15 2.77 1.14.82 2.97.82 2.73 0 4.61-1.61 1.88-1.61 1.88-4.59" transform="translate(-291.57 -396.42)"></path></g><rect width="27.75" height="32.31" x="-13.88" y="-16.16" fill="none" rx="0" ry="0" transform="translate(64.08 168.91)"></rect><g transform="translate(94.63 162.2)"><linearGradient id="c" x1="-2.84" x2="1.53" y1="0" y2="0" gradientUnits="objectBoundingBox"><stop offset="0%" stop-color="#cbcbcb"></stop><stop offset="100%" stop-color="#636363"></stop></linearGradient><path fill="url(#c)" d="M331.39 380.9v6.37h-7.35v24.74h-8.49v-24.74h-4.67v-4.09l4.67-2.28v-2.28q0-3.98 1.35-6.2 1.35-2.21 3.82-3.11 2.46-.91 5.83-.91 2.48 0 4.51.4 2.03.41 3.31.91l-2.17 6.23q-.98-.3-2.12-.55-1.14-.25-2.61-.25-1.78 0-2.61 1.07-.82 1.07-.82 2.74v1.95z" transform="translate(-322.63 -390.2)"></path></g><rect width="23.49" height="43.61" x="-11.74" y="-21.8" fill="none" rx="0" ry="0" transform="translate(95.13 162.7)"></rect><g transform="translate(120.7 168.44)"><linearGradient id="d" x1="-2.52" x2="0" y1="0" y2="0" gradientUnits="objectBoundingBox"><stop offset="0%" stop-color="#cbcbcb"></stop><stop offset="100%" stop-color="#636363"></stop></linearGradient><path fill="url(#d)" d="M349.09 380.31q4.32 0 7.43 1.66 3.12 1.66 4.82 4.8 1.7 3.15 1.7 7.68v4.12h-20.07q.14 3.59 2.16 5.64 2.01 2.04 5.6 2.04 2.98 0 5.46-.61t5.09-1.84v6.57q-2.31 1.14-4.83 1.67t-6.11.53q-4.67 0-8.28-1.73-3.6-1.72-5.65-5.26-2.04-3.53-2.04-8.9 0-5.46 1.85-9.09t5.16-5.45q3.31-1.83 7.71-1.83m.06 6.04q-2.48 0-4.11 1.59-1.63 1.59-1.88 4.98h11.92q-.03-1.89-.69-3.37-.65-1.47-1.94-2.33-1.3-.87-3.3-.87" transform="translate(-348.7 -396.44)"></path></g><rect width="28.67" height="32.26" x="-14.34" y="-16.13" fill="none" rx="0" ry="0" transform="translate(121.2 168.94)"></rect><g transform="translate(203 168.58)"><linearGradient id="e" x1="0" x2="3.66" y1="0" y2="0" gradientUnits="objectBoundingBox"><stop offset="0%" stop-color="#cbcbcb"></stop><stop offset="100%" stop-color="#636363"></stop></linearGradient><path fill="url(#e)" d="M433.04 412.71q-4.62 0-7.87-1.69-3.26-1.68-4.96-5.22-1.69-3.53-1.69-9.04 0-5.71 1.93-9.31 1.94-3.61 5.37-5.3 3.44-1.7 7.98-1.7 3.22 0 5.58.62 2.35.63 4.1 1.49l-2.5 6.57q-2.01-.81-3.73-1.32-1.73-.52-3.45-.52-2.23 0-3.71 1.05-1.47 1.04-2.19 3.13-.73 2.09-.73 5.23 0 3.09.78 5.12.78 2.03 2.26 3.02 1.47.99 3.59.99 2.64 0 4.7-.71t4.01-1.99v7.27q-1.95 1.22-4.08 1.76-2.13.55-5.39.55" transform="translate(-431 -396.58)"></path></g><rect width="24.96" height="32.26" x="-12.48" y="-16.13" fill="none" rx="0" ry="0" transform="translate(203.5 169.08)"></rect><g transform="translate(234.9 168.58)"><linearGradient id="f" x1="-.83" x2="2.04" y1="0" y2="0" gradientUnits="objectBoundingBox"><stop offset="0%" stop-color="#cbcbcb"></stop><stop offset="100%" stop-color="#636363"></stop></linearGradient><path fill="url(#f)" d="M477.99 396.53q0 3.9-1.04 6.91-1.04 3-3.03 5.08-1.99 2.07-4.79 3.13t-6.31 1.06q-3.28 0-6.02-1.06-2.74-1.06-4.76-3.13-2.02-2.08-3.12-5.08-1.1-3.01-1.1-6.91 0-5.17 1.84-8.76t5.23-5.46q3.4-1.86 8.1-1.86 4.37 0 7.75 1.86 3.38 1.87 5.32 5.46 1.93 3.59 1.93 8.76m-21.51 0q0 3.07.67 5.15.67 2.09 2.08 3.15 1.42 1.06 3.71 1.06 2.25 0 3.66-1.06 1.4-1.06 2.06-3.15.65-2.08.65-5.15 0-3.08-.65-5.13-.66-2.05-2.08-3.08-1.42-1.03-3.7-1.03-3.37 0-4.88 2.31-1.52 2.31-1.52 6.93" transform="translate(-462.9 -396.58)"></path></g><rect width="30.17" height="32.26" x="-15.09" y="-16.13" fill="none" rx="0" ry="0" transform="translate(235.4 169.08)"></rect><g transform="translate(269.65 162.78)"><linearGradient id="g" x1="-1.79" x2=".99" y1="0" y2="0" gradientUnits="objectBoundingBox"><stop offset="0%" stop-color="#cbcbcb"></stop><stop offset="100%" stop-color="#636363"></stop></linearGradient><path fill="url(#g)" d="M494.86 412.71q-5.2 0-8.48-4.08-3.27-4.08-3.27-11.98 0-7.99 3.32-12.1 3.31-4.1 8.65-4.1 2.23 0 3.93.61 1.69.61 2.93 1.64 1.24 1.03 2.1 2.31h.28q-.16-.89-.4-2.63-.24-1.74-.24-3.57v-9.97h8.52v43.31h-6.51l-1.65-4.04h-.36q-.8 1.28-2.02 2.33-1.21 1.04-2.88 1.65-1.67.62-3.92.62m2.98-6.77q3.48 0 4.91-2.07 1.43-2.08 1.52-6.25v-.92q0-4.53-1.39-6.94-1.4-2.41-5.18-2.41-2.81 0-4.4 2.42-1.59 2.42-1.59 6.99 0 4.56 1.6 6.87 1.61 2.31 4.53 2.31" transform="translate(-497.65 -390.77)"></path></g><rect width="29.09" height="43.87" x="-14.54" y="-21.93" fill="none" rx="0" ry="0" transform="translate(270.15 163.28)"></rect><g transform="translate(305.51 168.58)"><linearGradient id="h" x1="-2.99" x2=".06" y1="0" y2="0" gradientUnits="objectBoundingBox"><stop offset="0%" stop-color="#cbcbcb"></stop><stop offset="100%" stop-color="#636363"></stop></linearGradient><path fill="url(#h)" d="M533.91 380.45q4.31 0 7.43 1.65 3.12 1.66 4.81 4.8 1.7 3.15 1.7 7.69v4.12h-20.07q.14 3.59 2.16 5.63 2.02 2.05 5.61 2.05 2.98 0 5.46-.62 2.47-.61 5.09-1.83v6.57q-2.31 1.14-4.83 1.67t-6.11.53q-4.68 0-8.28-1.73-3.6-1.73-5.65-5.26-2.05-3.54-2.05-8.91 0-5.45 1.86-9.08 1.85-3.64 5.16-5.46 3.31-1.82 7.71-1.82m.05 6.04q-2.47 0-4.1 1.58-1.63 1.59-1.88 4.99h11.91q-.03-1.9-.68-3.37-.65-1.48-1.95-2.34-1.29-.86-3.3-.86" transform="translate(-533.51 -396.58)"></path></g><rect width="28.67" height="32.26" x="-14.34" y="-16.13" fill="none" rx="0" ry="0" transform="translate(306.01 169.08)"></rect><g transform="translate(163.74 168.28)"><linearGradient id="i" x1="0" x2=".01" y1="0" y2="0" gradientUnits="objectBoundingBox"><stop offset="0%" stop-color="#2c2c2c"></stop><stop offset="49.8%" stop-color="#808080"></stop><stop offset="100%" stop-color="#2c2c2c"></stop></linearGradient><path fill="url(#i)" d="m399.02 396.06 19.06 28.42h-13.66l-13.11-21.33-13.12 21.33h-12.8l18.71-29.08-17.52-27.31h13.2l12.15 20.29 11.92-20.29h12.88z" transform="translate(-391.74 -396.29)"></path></g><rect width="52.69" height="56.39" x="-26.34" y="-28.2" fill="none" rx="0" ry="0" transform="translate(164.24 168.78)"></rect><g transform="translate(26.09 208.6)"><linearGradient id="j" x1="0" x2="35.2" y1="0" y2="0" gradientUnits="objectBoundingBox"><stop offset="0%" stop-color="#2c2c2c"></stop><stop offset="49.8%" stop-color="#808080"></stop><stop offset="100%" stop-color="#2c2c2c"></stop></linearGradient><path fill="url(#j)" d="M257.42 438.83q0-1.39-1.5-2.24-.3-.15-1.83-.82-1.39-.6-1.75-1.22-.19-.35-.19-.74 0-1.04 1.02-1.45.44-.17.97-.17 1.31 0 2 .89.45.61.43 1.48h.47v-2.73q-.37 0-.43.23-.04.11-.04.3-1.11-.61-2.5-.61-1.68 0-2.62.94-.63.65-.63 1.53 0 1.31 1.47 2.14.27.14 1.78.8 1.41.62 1.79 1.26.2.36.2.78 0 1.1-1.06 1.58-.5.22-1.11.22-2.39-.03-2.66-2.92h-.47v3.23q.38 0 .44-.22.03-.12.03-.45 1.2.8 2.73.8 1.8 0 2.79-.97.67-.69.67-1.64" transform="translate(-254.09 -436.6)"></path></g><rect width="6.66" height="9.69" x="-3.33" y="-4.84" fill="none" rx="0" ry="0" transform="translate(26.59 209.1)"></rect><g transform="translate(33.86 209.97)"><linearGradient id="k" x1="-1.16" x2="39.66" y1="0" y2="0" gradientUnits="objectBoundingBox"><stop offset="0%" stop-color="#2c2c2c"></stop><stop offset="49.8%" stop-color="#808080"></stop><stop offset="100%" stop-color="#2c2c2c"></stop></linearGradient><path fill="url(#k)" d="M262.09 434.88q1.09 0 1.45.92.13.29.13.64 0 .78-.75.95-.39.08-1.11.06l-1.66-.04q.08-1.8 1.17-2.35.36-.18.77-.18m2.72 4.9-.39-.14q-.55 1.19-1.77 1.35-.15.01-.29.01-1.65 0-2.07-1.95-.12-.55-.14-1.21l1.88.04q1.9.03 2.45-.36.42-.32.42-.89 0-1.07-1.08-1.69-.76-.45-1.76-.45-1.95 0-2.8 1.62-.44.84-.44 1.91 0 1.93 1.39 2.87.83.55 1.9.55 1.68 0 2.48-1.22.12-.22.22-.44" transform="translate(-261.86 -437.96)"></path></g><rect width="6.08" height="6.95" x="-3.04" y="-3.48" fill="none" rx="0" ry="0" transform="translate(34.36 210.47)"></rect><g transform="translate(41.12 209.97)"><linearGradient id="l" x1="-2.3" x2="41.3" y1="0" y2="0" gradientUnits="objectBoundingBox"><stop offset="0%" stop-color="#2c2c2c"></stop><stop offset="49.8%" stop-color="#808080"></stop><stop offset="100%" stop-color="#2c2c2c"></stop></linearGradient><path fill="url(#l)" d="M266.07 438.03q0 1.89 1.39 2.83.86.58 1.96.58 1.62 0 2.45-1.14.19-.27.3-.53l-.41-.14q-.58 1.23-1.9 1.36-.13.01-.25.01-1.11 0-1.74-1.11-.47-.84-.47-2 0-2.05 1.08-2.73.45-.28 1-.28.84 0 1.02.65.03.13.07.39.1.63.35.78.15.08.34.1.53.03.67-.44.03-.11.03-.2 0-.8-1.01-1.32-.72-.35-1.56-.35-2.1 0-2.93 1.7-.39.81-.39 1.84" transform="translate(-269.12 -437.96)"></path></g><rect width="6.1" height="6.95" x="-3.05" y="-3.48" fill="none" rx="0" ry="0" transform="translate(41.62 210.47)"></rect><g transform="translate(48.62 210.04)"><linearGradient id="m" x1="-2.53" x2="30.69" y1="0" y2="0" gradientUnits="objectBoundingBox"><stop offset="0%" stop-color="#2c2c2c"></stop><stop offset="49.8%" stop-color="#808080"></stop><stop offset="100%" stop-color="#2c2c2c"></stop></linearGradient><path fill="url(#m)" d="M280.29 440.89h-.78v-6.25h-2.45v.39h1.28v3.38q0 1.4-.98 2.06-.44.3-.91.3-1.28 0-1.49-1.32-.03-.21-.03-.46v-4.35h-2.37v.39h1.2v3.72q.02 2.67 2.24 2.69 1.17 0 1.92-.95.28-.36.45-.8l.11 1.59h2.2q0-.34-.23-.37-.06-.02-.16-.02" transform="translate(-276.62 -438.04)"></path></g><rect width="8.12" height="6.8" x="-4.06" y="-3.4" fill="none" rx="0" ry="0" transform="translate(49.12 210.54)"></rect><g transform="translate(56.39 209.91)"><linearGradient id="n" x1="-5.09" x2="43.27" y1="0" y2="0" gradientUnits="objectBoundingBox"><stop offset="0%" stop-color="#2c2c2c"></stop><stop offset="49.8%" stop-color="#808080"></stop><stop offset="100%" stop-color="#2c2c2c"></stop></linearGradient><path fill="url(#n)" d="M285.07 440.89h-1.12v-3.11q0-1.42.87-2.28.35-.33.58-.34.27 0 .49.39.25.44.47.5.09.03.18.03.47 0 .6-.45.03-.1.03-.19 0-.7-.72-.86-.16-.03-.3-.03-.94 0-1.67.79-.34.38-.55.85l-.06-1.55h-2.26v.39h1.17v4.92q0 .72-.41.86-.23.08-.76.08v.39h3.85q0-.34-.23-.37-.06-.02-.16-.02" transform="translate(-284.39 -437.92)"></path></g><rect width="5.56" height="6.73" x="-2.78" y="-3.37" fill="none" rx="0" ry="0" transform="translate(56.89 210.41)"></rect><g transform="translate(62.91 209.97)"><linearGradient id="o" x1="-5.16" x2="35.65" y1="0" y2="0" gradientUnits="objectBoundingBox"><stop offset="0%" stop-color="#2c2c2c"></stop><stop offset="49.8%" stop-color="#808080"></stop><stop offset="100%" stop-color="#2c2c2c"></stop></linearGradient><path fill="url(#o)" d="M291.14 434.88q1.09 0 1.45.92.12.29.12.64 0 .78-.75.95-.39.08-1.1.06l-1.66-.04q.08-1.8 1.17-2.35.36-.18.77-.18m2.72 4.9-.4-.14q-.54 1.19-1.76 1.35-.16.01-.3.01-1.64 0-2.06-1.95-.13-.55-.14-1.21l1.87.04q1.91.03 2.46-.36.42-.32.42-.89 0-1.07-1.08-1.69-.76-.45-1.76-.45-1.96 0-2.8 1.62-.44.84-.44 1.91 0 1.93 1.39 2.87.83.55 1.89.55 1.69 0 2.49-1.22.12-.22.22-.44" transform="translate(-290.91 -437.96)"></path></g><rect width="6.08" height="6.95" x="-3.04" y="-3.48" fill="none" rx="0" ry="0" transform="translate(63.41 210.47)"></rect><g transform="translate(74.45 208.6)"><linearGradient id="p" x1="-4.89" x2="25.2" y1="0" y2="0" gradientUnits="objectBoundingBox"><stop offset="0%" stop-color="#2c2c2c"></stop><stop offset="49.8%" stop-color="#808080"></stop><stop offset="100%" stop-color="#2c2c2c"></stop></linearGradient><path fill="url(#p)" d="M306.11 440.56q0 .66.18.75.11.05.3.05v-2.95h-.38q-.79 2.58-3.18 2.59-2.03 0-2.77-2.05-.36-1-.36-2.36 0-2.92 1.61-3.96.7-.44 1.56-.44 1.96 0 2.83 1.84.16.33.27.67h.37l-.04-2.87q-.35 0-.43.22-.04.19-.04.61-.46-.46-1.55-.74-.72-.17-1.47-.17-2.47 0-3.78 1.83-.91 1.3-.91 2.98 0 2.05 1.27 3.44 1.34 1.44 3.5 1.44 1.58-.02 3.02-.88" transform="translate(-302.45 -436.6)"></path></g><rect width="8.27" height="9.69" x="-4.13" y="-4.84" fill="none" rx="0" ry="0" transform="translate(74.95 209.1)"></rect><g transform="translate(83.3 209.97)"><linearGradient id="q" x1="-7.17" x2="29.65" y1="0" y2="0" gradientUnits="objectBoundingBox"><stop offset="0%" stop-color="#2c2c2c"></stop><stop offset="49.8%" stop-color="#808080"></stop><stop offset="100%" stop-color="#2c2c2c"></stop></linearGradient><path fill="url(#q)" d="M309.25 437.95q0-2.42 1.32-2.95.35-.12.72-.12 1.74 0 2.02 2.18.05.38.05.83 0 2.63-1.44 3.08-.28.08-.58.08-1.58 0-1.98-1.88-.11-.54-.11-1.22m2.09-3.46q-1.5 0-2.5 1.03-.92.95-.92 2.37 0 1.97 1.44 2.95.87.6 1.93.6 1.5 0 2.49-1.06.9-.97.9-2.43 0-1.96-1.45-2.92-.86-.54-1.89-.54" transform="translate(-311.3 -437.96)"></path></g><rect width="6.76" height="6.95" x="-3.38" y="-3.48" fill="none" rx="0" ry="0" transform="translate(83.8 210.47)"></rect><g transform="translate(93.72 209.88)"><linearGradient id="r" x1="-5.14" x2="17.64" y1="0" y2="0" gradientUnits="objectBoundingBox"><stop offset="0%" stop-color="#2c2c2c"></stop><stop offset="49.8%" stop-color="#808080"></stop><stop offset="100%" stop-color="#2c2c2c"></stop></linearGradient><path fill="url(#r)" d="M318.82 440.89h-.7v-3.37q.05-1.38.95-2.05.43-.31.85-.31.78 0 1.08.86.12.37.12.84v3.09q0 .72-.34.86-.22.08-.75.08v.39h3.36q0-.34-.24-.37-.06-.02-.15-.02h-.71v-4q.25-1.14 1.11-1.59.33-.16.63-.16.79 0 1.12.83.16.39.16.89v3.09q0 .72-.35.86-.21.08-.75.08v.39h3.46q0-.34-.24-.37-.06-.02-.15-.02h-.8v-3.87q0-1.61-1.05-2.25-.47-.28-1.01-.28-1.19 0-1.91 1.1-.19.29-.31.6-.28-1.24-1.24-1.6-.28-.1-.57-.1-1.13 0-1.86.95-.27.34-.42.76l-.07-1.56h-2.26v.39h1.17v4.92q0 .72-.41.86-.23.08-.76.08v.39h3.43q0-.33-.23-.37-.08-.02-.16-.02" transform="translate(-321.73 -437.88)"></path></g><rect width="11.89" height="6.79" x="-5.95" y="-3.4" fill="none" rx="0" ry="0" transform="translate(94.22 210.38)"></rect><g transform="translate(106.47 209.88)"><linearGradient id="s" x1="-6.14" x2="16.64" y1="0" y2="0" gradientUnits="objectBoundingBox"><stop offset="0%" stop-color="#2c2c2c"></stop><stop offset="49.8%" stop-color="#808080"></stop><stop offset="100%" stop-color="#2c2c2c"></stop></linearGradient><path fill="url(#s)" d="M331.57 440.89h-.7v-3.37q.05-1.38.95-2.05.43-.31.85-.31.78 0 1.08.86.12.37.12.84v3.09q0 .72-.34.86-.22.08-.75.08v.39h3.36q0-.34-.24-.37-.06-.02-.15-.02h-.71v-4q.25-1.14 1.11-1.59.33-.16.63-.16.79 0 1.12.83.16.39.16.89v3.09q0 .72-.35.86-.21.08-.75.08v.39h3.46q0-.34-.24-.37-.06-.02-.15-.02h-.8v-3.87q0-1.61-1.05-2.25-.47-.28-1.01-.28-1.19 0-1.91 1.1-.19.29-.31.6-.28-1.24-1.24-1.6-.28-.1-.57-.1-1.13 0-1.86.95-.27.34-.42.76l-.07-1.56h-2.26v.39h1.17v4.92q0 .72-.41.86-.23.08-.76.08v.39h3.43q0-.33-.23-.37-.08-.02-.16-.02" transform="translate(-334.48 -437.88)"></path></g><rect width="11.89" height="6.79" x="-5.95" y="-3.4" fill="none" rx="0" ry="0" transform="translate(106.97 210.38)"></rect><g transform="translate(117.19 210.04)"><linearGradient id="t" x1="-10.27" x2="22.95" y1="0" y2="0" gradientUnits="objectBoundingBox"><stop offset="0%" stop-color="#2c2c2c"></stop><stop offset="49.8%" stop-color="#808080"></stop><stop offset="100%" stop-color="#2c2c2c"></stop></linearGradient><path fill="url(#t)" d="M348.86 440.89h-.79v-6.25h-2.45v.39h1.28v3.38q0 1.4-.98 2.06-.44.3-.91.3-1.28 0-1.48-1.32-.03-.21-.03-.46v-4.35h-2.38v.39h1.2v3.72q.02 2.67 2.24 2.69 1.17 0 1.92-.95.28-.36.45-.8l.11 1.59h2.21q0-.34-.24-.37-.06-.02-.15-.02" transform="translate(-345.19 -438.04)"></path></g><rect width="8.13" height="6.8" x="-4.07" y="-3.4" fill="none" rx="0" ry="0" transform="translate(117.69 210.54)"></rect><g transform="translate(126.14 209.88)"><linearGradient id="u" x1="-11.25" x2="21.91" y1="0" y2="0" gradientUnits="objectBoundingBox"><stop offset="0%" stop-color="#2c2c2c"></stop><stop offset="49.8%" stop-color="#808080"></stop><stop offset="100%" stop-color="#2c2c2c"></stop></linearGradient><path fill="url(#u)" d="M353.18 440.89h-.7v-3.37q.05-1.46 1.03-2.1.42-.26.86-.26.95 0 1.3.89.14.36.14.81v3.09q0 .72-.41.86-.23.08-.76.08v.39h3.51q0-.34-.23-.37-.06-.02-.16-.02h-.78v-3.87q0-1.57-1.08-2.24-.5-.29-1.08-.29-1.15 0-1.9.92-.28.36-.46.79l-.06-1.56h-2.26v.39h1.17v4.92q0 .72-.41.86-.23.08-.76.08v.39h3.43q0-.34-.23-.37-.06-.02-.16-.02" transform="translate(-354.14 -437.88)"></path></g><rect width="8.01" height="6.79" x="-4" y="-3.4" fill="none" rx="0" ry="0" transform="translate(126.64 210.38)"></rect><g transform="translate(132.81 208.39)"><linearGradient id="v" x1="-23.99" x2="41.91" y1="0" y2="0" gradientUnits="objectBoundingBox"><stop offset="0%" stop-color="#2c2c2c"></stop><stop offset="49.8%" stop-color="#808080"></stop><stop offset="100%" stop-color="#2c2c2c"></stop></linearGradient><path fill="url(#v)" d="M362.21 440.89h-.78v-6.25h-2.42v.39h1.25v4.92q0 .72-.48.88-.24.06-.77.06v.39h3.6q0-.34-.24-.37-.08-.02-.16-.02m-.59-8.53q0-.55-.48-.78-.19-.08-.36-.08-.55 0-.78.5-.08.17-.08.36 0 .58.51.8.18.06.35.06.54 0 .76-.5.08-.17.08-.36" transform="translate(-360.81 -436.39)"></path></g><rect width="3.6" height="9.78" x="-1.8" y="-4.89" fill="none" rx="0" ry="0" transform="translate(133.31 208.89)"></rect><g transform="translate(138.75 209.97)"><linearGradient id="w" x1="-16.66" x2="26.94" y1="0" y2="0" gradientUnits="objectBoundingBox"><stop offset="0%" stop-color="#2c2c2c"></stop><stop offset="49.8%" stop-color="#808080"></stop><stop offset="100%" stop-color="#2c2c2c"></stop></linearGradient><path fill="url(#w)" d="M363.7 438.03q0 1.89 1.39 2.83.86.58 1.95.58 1.63 0 2.46-1.14.18-.27.29-.53l-.4-.14q-.58 1.23-1.91 1.36-.12.01-.25.01-1.11 0-1.73-1.11-.47-.84-.47-2 0-2.05 1.08-2.73.45-.28 1-.28.84 0 1.01.65.03.13.08.39.09.63.34.78.16.08.35.1.53.03.67-.44.03-.11.03-.2 0-.8-1.02-1.32-.71-.35-1.56-.35-2.09 0-2.92 1.7-.39.81-.39 1.84" transform="translate(-366.75 -437.96)"></path></g><rect width="6.09" height="6.95" x="-3.04" y="-3.48" fill="none" rx="0" ry="0" transform="translate(139.25 210.47)"></rect><g transform="translate(145.87 209.97)"><linearGradient id="x" x1="-15.94" x2="23.31" y1="0" y2="0" gradientUnits="objectBoundingBox"><stop offset="0%" stop-color="#2c2c2c"></stop><stop offset="49.8%" stop-color="#808080"></stop><stop offset="100%" stop-color="#2c2c2c"></stop></linearGradient><path fill="url(#x)" d="M375.98 441.44q1.2 0 1.33-1.45.01-.1.01-.18l-.4-.01q-.11 1.14-.61 1.15-.41-.03-.42-.81v-3.3q0-2.23-2.24-2.35h-.28q-1.75 0-2.34.81-.19.26-.19.53 0 .48.45.56.08.02.16.02.36 0 .53-.46.22-.57.3-.68.29-.39.92-.39 1.47.09 1.51 1.61v.98q-3.67 0-4.2 1.53-.09.3-.09.64 0 1.19 1.04 1.63.43.17.9.17 1.14 0 1.92-.78.28-.3.42-.63.19 1.39 1.28 1.41m-3.11-.63q-.95 0-1.17-.95-.05-.22-.05-.48 0-1.05 1.21-1.33.64-.14 1.85-.16v1.25q-.23 1.08-1.14 1.52-.36.15-.7.15" transform="translate(-373.87 -437.96)"></path></g><rect width="6.9" height="6.95" x="-3.45" y="-3.48" fill="none" rx="0" ry="0" transform="translate(146.37 210.47)"></rect><g transform="translate(152.06 209.14)"><linearGradient id="y" x1="-25.12" x2="33.57" y1="0" y2="0" gradientUnits="objectBoundingBox"><stop offset="0%" stop-color="#2c2c2c"></stop><stop offset="49.8%" stop-color="#808080"></stop><stop offset="100%" stop-color="#2c2c2c"></stop></linearGradient><path fill="url(#y)" d="M377.71 434.64v.39h1.1v4.41q.11 1.95 1.8 2.01 1.43 0 1.79-1.76v-.03l-.42-.08q-.39 1.3-1.14 1.41-.84-.04-.86-1.21v-4.75h2.42v-.39h-2.42v-1.81l-1.17.33v1.48z" transform="translate(-380.06 -437.14)"></path></g><rect width="4.69" height="8.62" x="-2.35" y="-4.31" fill="none" rx="0" ry="0" transform="translate(152.56 209.64)"></rect><g transform="translate(156.75 208.39)"><linearGradient id="z" x1="-29.28" x2="36.62" y1="0" y2="0" gradientUnits="objectBoundingBox"><stop offset="0%" stop-color="#2c2c2c"></stop><stop offset="49.8%" stop-color="#808080"></stop><stop offset="100%" stop-color="#2c2c2c"></stop></linearGradient><path fill="url(#z)" d="M386.15 440.89h-.78v-6.25h-2.42v.39h1.25v4.92q0 .72-.49.88-.23.06-.76.06v.39h3.59q0-.34-.23-.37-.08-.02-.16-.02m-.59-8.53q0-.55-.49-.78-.18-.08-.36-.08-.54 0-.78.5-.07.17-.07.36 0 .58.51.8.17.06.34.06.55 0 .77-.5.08-.17.08-.36" transform="translate(-384.75 -436.39)"></path></g><rect width="3.59" height="9.78" x="-1.79" y="-4.89" fill="none" rx="0" ry="0" transform="translate(157.25 208.89)"></rect><g transform="translate(163.02 209.97)"><linearGradient id="A" x1="-17.11" x2="19.7" y1="0" y2="0" gradientUnits="objectBoundingBox"><stop offset="0%" stop-color="#2c2c2c"></stop><stop offset="49.8%" stop-color="#808080"></stop><stop offset="100%" stop-color="#2c2c2c"></stop></linearGradient><path fill="url(#A)" d="M388.96 437.95q0-2.42 1.33-2.95.35-.12.72-.12 1.74 0 2.02 2.18.04.38.04.83 0 2.63-1.43 3.08-.28.08-.58.08-1.58 0-1.99-1.88-.11-.54-.11-1.22m2.1-3.46q-1.5 0-2.5 1.03-.92.95-.92 2.37 0 1.97 1.43 2.95.88.6 1.94.6 1.5 0 2.49-1.06.9-.97.9-2.43 0-1.96-1.45-2.92-.86-.54-1.89-.54" transform="translate(-391.02 -437.96)"></path></g><rect width="6.76" height="6.95" x="-3.38" y="-3.48" fill="none" rx="0" ry="0" transform="translate(163.52 210.47)"></rect><g transform="translate(171.5 209.88)"><linearGradient id="B" x1="-16.36" x2="16.8" y1="0" y2="0" gradientUnits="objectBoundingBox"><stop offset="0%" stop-color="#2c2c2c"></stop><stop offset="49.8%" stop-color="#808080"></stop><stop offset="100%" stop-color="#2c2c2c"></stop></linearGradient><path fill="url(#B)" d="M398.54 440.89h-.7v-3.37q.05-1.46 1.03-2.1.42-.26.86-.26.95 0 1.3.89.14.36.14.81v3.09q0 .72-.41.86-.23.08-.76.08v.39h3.51q0-.34-.23-.37-.07-.02-.16-.02h-.78v-3.87q0-1.57-1.08-2.24-.5-.29-1.08-.29-1.15 0-1.9.92-.28.36-.46.79l-.06-1.56h-2.26v.39h1.17v4.92q0 .72-.41.86-.23.08-.76.08v.39h3.43q0-.34-.23-.37-.06-.02-.16-.02" transform="translate(-399.5 -437.88)"></path></g><rect width="8.01" height="6.79" x="-4" y="-3.4" fill="none" rx="0" ry="0" transform="translate(172 210.38)"></rect><g transform="translate(183.22 208.6)"><linearGradient id="C" x1="-18.76" x2="16.43" y1="0" y2="0" gradientUnits="objectBoundingBox"><stop offset="0%" stop-color="#2c2c2c"></stop><stop offset="49.8%" stop-color="#808080"></stop><stop offset="100%" stop-color="#2c2c2c"></stop></linearGradient><path fill="url(#C)" d="M414.54 438.83q0-1.39-1.5-2.24-.29-.15-1.83-.82-1.39-.6-1.75-1.22-.18-.35-.18-.74 0-1.04 1.01-1.45.44-.17.97-.17 1.31 0 2 .89.45.61.44 1.48h.47v-2.73q-.38 0-.44.23-.03.11-.03.3-1.11-.61-2.5-.61-1.69 0-2.63.94-.62.65-.62 1.53 0 1.31 1.47 2.14.26.14 1.78.8 1.41.62 1.78 1.26.2.36.2.78 0 1.1-1.06 1.58-.5.22-1.11.22-2.39-.03-2.65-2.92h-.47v3.23q.37 0 .43-.22.04-.12.04-.45 1.2.8 2.73.8 1.8 0 2.78-.97.67-.69.67-1.64" transform="translate(-411.21 -436.6)"></path></g><rect width="6.65" height="9.69" x="-3.33" y="-4.84" fill="none" rx="0" ry="0" transform="translate(183.72 209.1)"></rect><g transform="translate(190.99 209.97)"><linearGradient id="D" x1="-22.83" x2="17.98" y1="0" y2="0" gradientUnits="objectBoundingBox"><stop offset="0%" stop-color="#2c2c2c"></stop><stop offset="49.8%" stop-color="#808080"></stop><stop offset="100%" stop-color="#2c2c2c"></stop></linearGradient><path fill="url(#D)" d="M419.21 434.88q1.1 0 1.46.92.12.29.12.64 0 .78-.75.95-.39.08-1.11.06l-1.65-.04q.08-1.8 1.17-2.35.36-.18.76-.18m2.72 4.9-.39-.14q-.54 1.19-1.76 1.35-.16.01-.3.01-1.64 0-2.06-1.95-.13-.55-.14-1.21l1.87.04q1.91.03 2.46-.36.42-.32.42-.89 0-1.07-1.08-1.69-.77-.45-1.77-.45-1.95 0-2.79 1.62-.44.84-.44 1.91 0 1.93 1.39 2.87.83.55 1.89.55 1.69 0 2.48-1.22.13-.22.22-.44" transform="translate(-418.99 -437.96)"></path></g><rect width="6.08" height="6.95" x="-3.04" y="-3.48" fill="none" rx="0" ry="0" transform="translate(191.49 210.47)"></rect><g transform="translate(198.57 209.97)"><linearGradient id="E" x1="-22.94" x2="16.31" y1="0" y2="0" gradientUnits="objectBoundingBox"><stop offset="0%" stop-color="#2c2c2c"></stop><stop offset="49.8%" stop-color="#808080"></stop><stop offset="100%" stop-color="#2c2c2c"></stop></linearGradient><path fill="url(#E)" d="M428.68 441.44q1.21 0 1.33-1.45.02-.1.02-.18l-.41-.01q-.11 1.14-.61 1.15-.4-.03-.42-.81v-3.3q0-2.23-2.23-2.35h-.29q-1.75 0-2.34.81-.19.26-.19.53 0 .48.46.56.07.02.15.02.36 0 .53-.46.22-.57.3-.68.3-.39.92-.39 1.47.09 1.52 1.61v.98q-3.67 0-4.21 1.53-.09.3-.09.64 0 1.19 1.05 1.63.42.17.89.17 1.14 0 1.92-.78.28-.3.42-.63.19 1.39 1.28 1.41m-3.11-.63q-.95 0-1.17-.95-.04-.22-.04-.48 0-1.05 1.2-1.33.64-.14 1.86-.16v1.25q-.24 1.08-1.14 1.52-.36.15-.71.15" transform="translate(-426.57 -437.96)"></path></g><rect width="6.91" height="6.95" x="-3.46" y="-3.48" fill="none" rx="0" ry="0" transform="translate(199.07 210.47)"></rect><g transform="translate(208.51 209.88)"><linearGradient id="F" x1="-14.14" x2="8.64" y1="0" y2="0" gradientUnits="objectBoundingBox"><stop offset="0%" stop-color="#2c2c2c"></stop><stop offset="49.8%" stop-color="#808080"></stop><stop offset="100%" stop-color="#2c2c2c"></stop></linearGradient><path fill="url(#F)" d="M433.62 440.89h-.7v-3.37q.04-1.38.95-2.05.42-.31.84-.31.79 0 1.08.86.13.37.13.84v3.09q0 .72-.35.86-.21.08-.75.08v.39h3.36q0-.34-.23-.37-.06-.02-.16-.02h-.7v-4q.25-1.14 1.11-1.59.33-.16.62-.16.8 0 1.13.83.16.39.16.89v3.09q0 .72-.35.86-.22.08-.75.08v.39h3.45q0-.34-.23-.37-.06-.02-.16-.02h-.79v-3.87q0-1.61-1.05-2.25-.47-.28-1.02-.28-1.18 0-1.9 1.1-.19.29-.31.6-.29-1.24-1.24-1.6-.28-.1-.58-.1-1.12 0-1.86.95-.26.34-.42.76l-.06-1.56h-2.27v.39h1.18v4.92q0 .72-.41.86-.23.08-.77.08v.39h3.44q0-.33-.23-.37-.08-.02-.16-.02" transform="translate(-436.51 -437.88)"></path></g><rect width="11.89" height="6.79" x="-5.95" y="-3.4" fill="none" rx="0" ry="0" transform="translate(209.01 210.38)"></rect><g transform="translate(217.16 208.2)"><linearGradient id="G" x1="-42.75" x2="23.38" y1="0" y2="0" gradientUnits="objectBoundingBox"><stop offset="0%" stop-color="#2c2c2c"></stop><stop offset="49.8%" stop-color="#808080"></stop><stop offset="100%" stop-color="#2c2c2c"></stop></linearGradient><path fill="url(#G)" d="M446.56 440.89h-.85v-9.76h-2.34v.39h1.17v8.43q0 .72-.4.86-.24.08-.77.08v.39h3.58q0-.34-.24-.37-.06-.02-.15-.02" transform="translate(-445.16 -436.2)"></path></g><rect width="3.58" height="10.15" x="-1.79" y="-5.08" fill="none" rx="0" ry="0" transform="translate(217.66 208.7)"></rect><g transform="translate(223.03 209.97)"><linearGradient id="H" x1="-27.25" x2="13.56" y1="0" y2="0" gradientUnits="objectBoundingBox"><stop offset="0%" stop-color="#2c2c2c"></stop><stop offset="49.8%" stop-color="#808080"></stop><stop offset="100%" stop-color="#2c2c2c"></stop></linearGradient><path fill="url(#H)" d="M451.26 434.88q1.1 0 1.45.92.13.29.13.64 0 .78-.75.95-.39.08-1.11.06l-1.66-.04q.08-1.8 1.18-2.35.36-.18.76-.18m2.72 4.9-.39-.14q-.55 1.19-1.77 1.35-.15.01-.29.01-1.64 0-2.07-1.95-.12-.55-.14-1.21l1.88.04q1.91.03 2.45-.36.42-.32.42-.89 0-1.07-1.07-1.69-.77-.45-1.77-.45-1.95 0-2.8 1.62-.43.84-.43 1.91 0 1.93 1.39 2.87.82.55 1.89.55 1.68 0 2.48-1.22.13-.22.22-.44" transform="translate(-451.04 -437.96)"></path></g><rect width="6.07" height="6.95" x="-3.04" y="-3.48" fill="none" rx="0" ry="0" transform="translate(223.53 210.47)"></rect><g transform="translate(229.82 209.91)"><linearGradient id="I" x1="-32.77" x2="14.73" y1="0" y2="0" gradientUnits="objectBoundingBox"><stop offset="0%" stop-color="#2c2c2c"></stop><stop offset="49.8%" stop-color="#808080"></stop><stop offset="100%" stop-color="#2c2c2c"></stop></linearGradient><path fill="url(#I)" d="M457.59 441.02q1.08 0 1.45-.66.14-.23.14-.52 0-.65-.95-1.12-.2-.11-.67-.31-1.28-.53-1.7-1-.46-.52-.46-1.21 0-1.07 1.19-1.51.55-.2 1.19-.2 1.03 0 1.78.43 0-.45.22-.51.09-.02.2-.02v1.95h-.41q-.03-1.43-1.59-1.45-1.17 0-1.45.69-.08.19-.08.39 0 .67.97 1.14.22.11.69.3 1.26.51 1.68.98.46.5.46 1.19 0 1.26-1.35 1.69-.51.17-1.12.17-1.13-.02-1.96-.56 0 .4-.2.46-.09.02-.22.02v-2.37h.44q.03 2.01 1.75 2.03" transform="translate(-457.82 -437.92)"></path></g><rect width="4.85" height="7.05" x="-2.42" y="-3.52" fill="none" rx="0" ry="0" transform="translate(230.32 210.41)"></rect><g transform="translate(236.07 209.91)"><linearGradient id="J" x1="-33.77" x2="13.73" y1="0" y2="0" gradientUnits="objectBoundingBox"><stop offset="0%" stop-color="#2c2c2c"></stop><stop offset="49.8%" stop-color="#808080"></stop><stop offset="100%" stop-color="#2c2c2c"></stop></linearGradient><path fill="url(#J)" d="M463.84 441.02q1.08 0 1.45-.66.14-.23.14-.52 0-.65-.95-1.12-.2-.11-.67-.31-1.28-.53-1.7-1-.46-.52-.46-1.21 0-1.07 1.19-1.51.55-.2 1.19-.2 1.03 0 1.78.43 0-.45.22-.51.09-.02.2-.02v1.95h-.41q-.03-1.43-1.59-1.45-1.17 0-1.45.69-.08.19-.08.39 0 .67.97 1.14.22.11.69.3 1.26.51 1.68.98.46.5.46 1.19 0 1.26-1.35 1.69-.51.17-1.12.17-1.13-.02-1.96-.56 0 .4-.2.46-.09.02-.22.02v-2.37h.44q.03 2.01 1.75 2.03" transform="translate(-464.07 -437.92)"></path></g><rect width="4.85" height="7.05" x="-2.42" y="-3.52" fill="none" rx="0" ry="0" transform="translate(236.57 210.41)"></rect><g transform="translate(247.08 208.6)"><linearGradient id="K" x1="-22.6" x2="7.49" y1="0" y2="0" gradientUnits="objectBoundingBox"><stop offset="0%" stop-color="#2c2c2c"></stop><stop offset="49.8%" stop-color="#808080"></stop><stop offset="100%" stop-color="#2c2c2c"></stop></linearGradient><path fill="url(#K)" d="M478.73 440.56q0 .66.19.75.11.05.29.05v-2.95h-.37q-.8 2.58-3.19 2.59-2.03 0-2.76-2.05-.36-1-.36-2.36 0-2.92 1.61-3.96.7-.44 1.56-.44 1.95 0 2.83 1.84.15.33.26.67h.38l-.05-2.87q-.34 0-.42.22-.05.19-.05.61-.45-.46-1.54-.74-.72-.17-1.47-.17-2.47 0-3.78 1.83-.91 1.3-.91 2.98 0 2.05 1.26 3.44 1.35 1.44 3.5 1.44 1.58-.02 3.02-.88" transform="translate(-475.08 -436.6)"></path></g><rect width="8.26" height="9.69" x="-4.13" y="-4.84" fill="none" rx="0" ry="0" transform="translate(247.58 209.1)"></rect><g transform="translate(255.93 209.97)"><linearGradient id="L" x1="-28.71" x2="8.11" y1="0" y2="0" gradientUnits="objectBoundingBox"><stop offset="0%" stop-color="#2c2c2c"></stop><stop offset="49.8%" stop-color="#808080"></stop><stop offset="100%" stop-color="#2c2c2c"></stop></linearGradient><path fill="url(#L)" d="M481.87 437.95q0-2.42 1.33-2.95.34-.12.72-.12 1.73 0 2.01 2.18.05.38.05.83 0 2.63-1.44 3.08-.28.08-.58.08-1.57 0-1.98-1.88-.11-.54-.11-1.22m2.09-3.46q-1.5 0-2.5 1.03-.92.95-.92 2.37 0 1.97 1.44 2.95.88.6 1.94.6 1.5 0 2.48-1.06.91-.97.91-2.43 0-1.96-1.45-2.92-.86-.54-1.9-.54" transform="translate(-483.93 -437.96)"></path></g><rect width="6.77" height="6.95" x="-3.38" y="-3.48" fill="none" rx="0" ry="0" transform="translate(256.43 210.47)"></rect><g transform="translate(264.41 209.88)"><linearGradient id="M" x1="-26.83" x2="6.33" y1="0" y2="0" gradientUnits="objectBoundingBox"><stop offset="0%" stop-color="#2c2c2c"></stop><stop offset="49.8%" stop-color="#808080"></stop><stop offset="100%" stop-color="#2c2c2c"></stop></linearGradient><path fill="url(#M)" d="M491.45 440.89h-.7v-3.37q.04-1.46 1.03-2.1.42-.26.86-.26.95 0 1.29.89.14.36.14.81v3.09q0 .72-.4.86-.24.08-.77.08v.39h3.52q0-.34-.24-.37-.06-.02-.15-.02h-.78v-3.87q0-1.57-1.08-2.24-.5-.29-1.08-.29-1.16 0-1.91.92-.28.36-.45.79l-.06-1.56h-2.27v.39h1.17v4.92q0 .72-.4.86-.24.08-.77.08v.39h3.44q0-.34-.23-.37-.07-.02-.16-.02" transform="translate(-492.41 -437.88)"></path></g><rect width="8.02" height="6.79" x="-4.01" y="-3.4" fill="none" rx="0" ry="0" transform="translate(264.91 210.38)"></rect><g transform="translate(273.29 209.88)"><linearGradient id="N" x1="-27.83" x2="5.33" y1="0" y2="0" gradientUnits="objectBoundingBox"><stop offset="0%" stop-color="#2c2c2c"></stop><stop offset="49.8%" stop-color="#808080"></stop><stop offset="100%" stop-color="#2c2c2c"></stop></linearGradient><path fill="url(#N)" d="M500.32 440.89h-.7v-3.37q.05-1.46 1.03-2.1.42-.26.86-.26.95 0 1.3.89.14.36.14.81v3.09q0 .72-.41.86-.23.08-.76.08v.39h3.51q0-.34-.23-.37-.06-.02-.16-.02h-.78v-3.87q0-1.57-1.08-2.24-.5-.29-1.08-.29-1.15 0-1.9.92-.28.36-.45.79l-.07-1.56h-2.26v.39h1.17v4.92q0 .72-.41.86-.23.08-.76.08v.39h3.43q0-.34-.23-.37-.06-.02-.16-.02" transform="translate(-501.29 -437.88)"></path></g><rect width="8.01" height="6.79" x="-4" y="-3.4" fill="none" rx="0" ry="0" transform="translate(273.79 210.38)"></rect><g transform="translate(281.35 209.97)"><linearGradient id="O" x1="-35.29" x2="5.52" y1="0" y2="0" gradientUnits="objectBoundingBox"><stop offset="0%" stop-color="#2c2c2c"></stop><stop offset="49.8%" stop-color="#808080"></stop><stop offset="100%" stop-color="#2c2c2c"></stop></linearGradient><path fill="url(#O)" d="M509.57 434.88q1.1 0 1.46.92.12.29.12.64 0 .78-.75.95-.39.08-1.11.06l-1.65-.04q.07-1.8 1.17-2.35.36-.18.76-.18m2.72 4.9-.39-.14q-.54 1.19-1.76 1.35-.16.01-.3.01-1.64 0-2.06-1.95-.13-.55-.14-1.21l1.87.04q1.91.03 2.45-.36.43-.32.43-.89 0-1.07-1.08-1.69-.77-.45-1.77-.45-1.95 0-2.79 1.62-.44.84-.44 1.91 0 1.93 1.39 2.87.83.55 1.89.55 1.69 0 2.48-1.22.13-.22.22-.44" transform="translate(-509.35 -437.96)"></path></g><rect width="6.08" height="6.95" x="-3.04" y="-3.48" fill="none" rx="0" ry="0" transform="translate(281.85 210.47)"></rect><g transform="translate(288.6 209.97)"><linearGradient id="P" x1="-38.71" x2="4.89" y1="0" y2="0" gradientUnits="objectBoundingBox"><stop offset="0%" stop-color="#2c2c2c"></stop><stop offset="49.8%" stop-color="#808080"></stop><stop offset="100%" stop-color="#2c2c2c"></stop></linearGradient><path fill="url(#P)" d="M513.56 438.03q0 1.89 1.39 2.83.86.58 1.95.58 1.63 0 2.46-1.14.18-.27.29-.53l-.4-.14q-.58 1.23-1.91 1.36-.13.01-.25.01-1.11 0-1.73-1.11-.47-.84-.47-2 0-2.05 1.07-2.73.46-.28 1-.28.85 0 1.02.65.03.13.08.39.09.63.34.78.16.08.35.1.53.03.67-.44.03-.11.03-.2 0-.8-1.02-1.32-.72-.35-1.56-.35-2.09 0-2.92 1.7-.39.81-.39 1.84" transform="translate(-516.6 -437.96)"></path></g><rect width="6.09" height="6.95" x="-3.04" y="-3.48" fill="none" rx="0" ry="0" transform="translate(289.1 210.47)"></rect><g transform="translate(294.38 209.14)"><linearGradient id="Q" x1="-53.15" x2="5.54" y1="0" y2="0" gradientUnits="objectBoundingBox"><stop offset="0%" stop-color="#2c2c2c"></stop><stop offset="49.8%" stop-color="#808080"></stop><stop offset="100%" stop-color="#2c2c2c"></stop></linearGradient><path fill="url(#Q)" d="M520.04 434.64v.39h1.1v4.41q.11 1.95 1.79 2.01 1.44 0 1.8-1.76v-.03l-.42-.08q-.39 1.3-1.14 1.41-.85-.04-.86-1.21v-4.75h2.42v-.39h-2.42v-1.81l-1.17.33v1.48z" transform="translate(-522.38 -437.14)"></path></g><rect width="4.69" height="8.62" x="-2.35" y="-4.31" fill="none" rx="0" ry="0" transform="translate(294.88 209.64)"></rect><g transform="translate(299.07 208.39)"><linearGradient id="R" x1="-60.69" x2="5.21" y1="0" y2="0" gradientUnits="objectBoundingBox"><stop offset="0%" stop-color="#2c2c2c"></stop><stop offset="49.8%" stop-color="#808080"></stop><stop offset="100%" stop-color="#2c2c2c"></stop></linearGradient><path fill="url(#R)" d="M528.48 440.89h-.78v-6.25h-2.42v.39h1.25v4.92q0 .72-.49.88-.23.06-.76.06v.39h3.59q0-.34-.23-.37-.08-.02-.16-.02m-.59-8.53q0-.55-.49-.78-.19-.08-.36-.08-.54 0-.78.5-.08.17-.08.36 0 .58.52.8.17.06.34.06.55 0 .77-.5.08-.17.08-.36" transform="translate(-527.08 -436.39)"></path></g><rect width="3.59" height="9.78" x="-1.79" y="-4.89" fill="none" rx="0" ry="0" transform="translate(299.57 208.89)"></rect><g transform="translate(305.35 209.97)"><linearGradient id="S" x1="-34.87" x2="1.95" y1="0" y2="0" gradientUnits="objectBoundingBox"><stop offset="0%" stop-color="#2c2c2c"></stop><stop offset="49.8%" stop-color="#808080"></stop><stop offset="100%" stop-color="#2c2c2c"></stop></linearGradient><path fill="url(#S)" d="M531.29 437.95q0-2.42 1.33-2.95.34-.12.72-.12 1.73 0 2.02 2.18.04.38.04.83 0 2.63-1.44 3.08-.28.08-.57.08-1.58 0-1.99-1.88-.11-.54-.11-1.22m2.1-3.46q-1.5 0-2.5 1.03-.93.95-.93 2.37 0 1.97 1.44 2.95.88.6 1.94.6 1.5 0 2.48-1.06.91-.97.91-2.43 0-1.96-1.45-2.92-.86-.54-1.89-.54" transform="translate(-533.35 -437.96)"></path></g><rect width="6.77" height="6.95" x="-3.38" y="-3.48" fill="none" rx="0" ry="0" transform="translate(305.85 210.47)"></rect><g transform="translate(313.83 209.88)"><linearGradient id="T" x1="-32.4" x2=".76" y1="0" y2="0" gradientUnits="objectBoundingBox"><stop offset="0%" stop-color="#2c2c2c"></stop><stop offset="49.8%" stop-color="#808080"></stop><stop offset="100%" stop-color="#2c2c2c"></stop></linearGradient><path fill="url(#T)" d="M540.87 440.89h-.7v-3.37q.04-1.46 1.03-2.1.42-.26.86-.26.95 0 1.3.89.14.36.14.81v3.09q0 .72-.41.86-.23.08-.77.08v.39h3.52q0-.34-.23-.37-.07-.02-.16-.02h-.78v-3.87q0-1.57-1.08-2.24-.5-.29-1.08-.29-1.15 0-1.9.92-.29.36-.46.79l-.06-1.56h-2.27v.39H539v4.92q0 .72-.41.86-.23.08-.77.08v.39h3.44q0-.34-.23-.37-.07-.02-.16-.02" transform="translate(-541.83 -437.88)"></path></g><rect width="8.02" height="6.79" x="-4.01" y="-3.4" fill="none" rx="0" ry="0" transform="translate(314.33 210.38)"></rect><g transform="translate(172 172)scale(4.2081)"><linearGradient id="U" x1="0" x2="1" y1="0" y2="0" gradientUnits="objectBoundingBox"><stop offset="0%" stop-color="#2c2c2c"></stop><stop offset="49.8%" stop-color="#808080"></stop><stop offset="100%" stop-color="#2c2c2c"></stop></linearGradient><path fill="url(#U)" fill-rule="evenodd" d="M50.017 962.266c-22.132 0-40.113 17.945-40.113 40.078 0 22.168 17.98 40.114 40.113 40.114 22.132 0 40.08-17.947 40.08-40.114 0-22.132-17.948-40.078-40.08-40.078m0 1c21.592 0 39.08 17.486 39.08 39.078 0 21.628-17.488 39.115-39.08 39.115s-39.114-17.488-39.114-39.115c0-21.592 17.522-39.078 39.114-39.078" transform="translate(-50 -1002.36)"></path></g></svg></svg>